{"title":"XXX Top Models DVD","uid":6953523,"size":1009562555,"categoryP":"porn","categoryS":"movies","magnet":"?xt=urn:btih:3feeec17fe3124b2e6332853725b4cd733beefa5&amp;dn=XXX+Top+Models+DVD&amp;tr=udp%3A%2F%2Ftracker.openbittorrent.com%3A80&amp;tr=udp%3A%2F%2Fopen.demonii.com%3A1337&amp;tr=udp%3A%2F%2Ftracker.coppersurfer.tk%3A6969&amp;tr=udp%3A%2F%2Fexodus.desync.com%3A6969","seeders":1,"leechers":0,"uploader":"tigris1968","files":67,"time":1326492265,"description":"XXX Top Models DVD\n\n\nCategory \tAll Sex\nDirector \tHolly Randall\nStarring \tAlexis Texas, Kagney Linn Karter, Sophia Santi, Kayden Kross, Kendall Brooks, Puma Swede, Nikki Jayne, Hanna Hilton, Mr Pete, Charles Dera, Eric Swiss\n\nStudio \tSuze Randall\nDiscs \t1\nRelease Date \tJul 29, 2009\n\nfrond - http://bayimg.com/lAlCLaADo\n\nback - http://bayimg.com/laLcnaado\n\nscreen - http://bayimg.com/LALcoaADO\n\nGeneral\nComplete name                    : C:\\Downloads\\XXX Top Models DVD\\dvd\\XXX Top Models DVD.avi\nFormat                           : AVI\nFormat/Info                      : Audio Video Interleave\nFile size                        : 955 MiB\nDuration                         : 1h 39mn\nOverall bit rate                 : 1 336 Kbps\nWriting application              : MEncoder SVN-r30881(20100311-gcc4.3.3)\nWriting library                  : MPlayer\n\nVideo\nID                               : 0\nFormat                           : MPEG-4 Visual\nFormat profile                   : Advanced Simple@L5\nFormat settings, BVOP            : 2\nFormat settings, QPel            : No\nFormat settings, GMC             : No warppoints\nFormat settings, Matrix          : Default (H.263)\nCodec ID                         : XVID\nCodec ID/Hint                    : XviD\nDuration                         : 1h 39mn\nBit rate                         : 1 195 Kbps\nWidth                            : 720 pixels\nHeight                           : 480 pixels\nDisplay aspect ratio             : 3:2\nFrame rate                       : 25.000 fps\nStandard                         : NTSC\nColor space                      : YUV\nChroma subsampling               : 4:2:0\nBit depth                        : 8 bits\nScan type                        : Progressive\nCompression mode                 : Lossy\nBits/(Pixel*Frame)               : 0.138\nStream size                      : 854 MiB (89%)\nWriting library                  : XviD 1.2.1 (UTC 2008-12-04)\n\nAudio\nID                               : 1\nFormat                           : MPEG Audio\nFormat version                   : Version 1\nFormat profile                   : Layer 3\nMode                             : Joint stereo\nMode extension                   : MS Stereo\nCodec ID                         : 55\nCodec ID/Hint                    : MP3\nDuration                         : 1h 39mn\nBit rate mode                    : Constant\nBit rate                         : 128 Kbps\nChannel(s)                       : 2 channels\nSampling rate                    : 44.1 KHz\nCompression mode                 : Lossy\nDelay relative to video          : 40ms\nStream size                      : 91.5 MiB (10%)\nAlignment                        : Aligned on interleaves\nInterleave, duration             : 26 ms (0.65 video frame)\nInterleave, preload duration     : 522 ms\nWriting library                  : LAME3.98\n\n","torrent":{"xt":"urn:btih:3feeec17fe3124b2e6332853725b4cd733beefa5","amp;dn":"XXX+Top+Models+DVD","amp;tr":["udp%3A%2F%2Ftracker.openbittorrent.com%3A80","udp%3A%2F%2Fopen.demonii.com%3A1337","udp%3A%2F%2Ftracker.coppersurfer.tk%3A6969","udp%3A%2F%2Fexodus.desync.com%3A6969"],"infoHash":"3feeec17fe3124b2e6332853725b4cd733beefa5","infoHashBuffer":{"type":"Buffer","data":[63,238,236,23,254,49,36,178,230,51,40,83,114,91,76,215,51,190,239,165]},"announce":[],"urlList":[]}}